<mxfile host="app.diagrams.net" agent="Mozilla/5.0 (Windows NT 10.0; Win64; x64) AppleWebKit/537.36 (KHTML, like Gecko) Chrome/127.0.0.0 Safari/537.36" version="24.7.7">
  <diagram name="Page-1" id="gGhG6117xN52jGxHGsjl">
    <mxGraphModel dx="954" dy="1761" grid="1" gridSize="10" guides="1" tooltips="1" connect="1" arrows="1" fold="1" page="1" pageScale="1" pageWidth="827" pageHeight="1169" math="0" shadow="0">
      <root>
        <mxCell id="0" />
        <mxCell id="1" parent="0" />
        <mxCell id="8tkHss766R4aM95-DBF8-3" value="" style="edgeStyle=orthogonalEdgeStyle;rounded=0;orthogonalLoop=1;jettySize=auto;html=1;" parent="1" source="8tkHss766R4aM95-DBF8-1" target="8tkHss766R4aM95-DBF8-2" edge="1">
          <mxGeometry relative="1" as="geometry" />
        </mxCell>
        <mxCell id="fhHp4hX9JzmjNrHZHUwl-2" value="" style="edgeStyle=orthogonalEdgeStyle;rounded=0;orthogonalLoop=1;jettySize=auto;html=1;" parent="1" source="8tkHss766R4aM95-DBF8-1" target="fhHp4hX9JzmjNrHZHUwl-1" edge="1">
          <mxGeometry relative="1" as="geometry" />
        </mxCell>
        <mxCell id="fhHp4hX9JzmjNrHZHUwl-6" value="" style="edgeStyle=orthogonalEdgeStyle;rounded=0;orthogonalLoop=1;jettySize=auto;html=1;" parent="1" source="8tkHss766R4aM95-DBF8-1" target="fhHp4hX9JzmjNrHZHUwl-5" edge="1">
          <mxGeometry relative="1" as="geometry" />
        </mxCell>
        <mxCell id="8tkHss766R4aM95-DBF8-1" value="Adding SSH Fingerprint" style="rounded=0;whiteSpace=wrap;html=1;" parent="1" vertex="1">
          <mxGeometry x="310" y="10" width="120" height="60" as="geometry" />
        </mxCell>
        <mxCell id="8tkHss766R4aM95-DBF8-2" value="Open Security" style="whiteSpace=wrap;html=1;rounded=0;" parent="1" vertex="1">
          <mxGeometry x="150" y="190" width="120" height="60" as="geometry" />
        </mxCell>
        <mxCell id="8tkHss766R4aM95-DBF8-7" value="" style="edgeStyle=orthogonalEdgeStyle;rounded=0;orthogonalLoop=1;jettySize=auto;html=1;" parent="1" source="8tkHss766R4aM95-DBF8-6" target="8tkHss766R4aM95-DBF8-2" edge="1">
          <mxGeometry relative="1" as="geometry" />
        </mxCell>
        <mxCell id="8tkHss766R4aM95-DBF8-9" value="" style="edgeStyle=orthogonalEdgeStyle;rounded=0;orthogonalLoop=1;jettySize=auto;html=1;" parent="1" source="8tkHss766R4aM95-DBF8-6" target="8tkHss766R4aM95-DBF8-8" edge="1">
          <mxGeometry relative="1" as="geometry" />
        </mxCell>
        <mxCell id="8tkHss766R4aM95-DBF8-6" value="Goto Repository settings. Remember repository settings are different from account settings" style="rounded=0;whiteSpace=wrap;html=1;" parent="1" vertex="1">
          <mxGeometry x="150" y="-10" width="120" height="100" as="geometry" />
        </mxCell>
        <mxCell id="8tkHss766R4aM95-DBF8-13" value="" style="edgeStyle=orthogonalEdgeStyle;rounded=0;orthogonalLoop=1;jettySize=auto;html=1;" parent="1" source="8tkHss766R4aM95-DBF8-8" target="8tkHss766R4aM95-DBF8-12" edge="1">
          <mxGeometry relative="1" as="geometry" />
        </mxCell>
        <mxCell id="8tkHss766R4aM95-DBF8-8" value="Wikis -&amp;gt;&amp;nbsp;&lt;div&gt;Allow documentation&lt;/div&gt;&lt;div&gt;for repository&lt;/div&gt;" style="whiteSpace=wrap;html=1;rounded=0;" parent="1" vertex="1">
          <mxGeometry x="150" y="-120" width="120" height="60" as="geometry" />
        </mxCell>
        <mxCell id="8tkHss766R4aM95-DBF8-12" value="Will public Wikis&lt;div&gt;Be editable only&amp;nbsp;&lt;/div&gt;&lt;div&gt;by collaborators?&lt;/div&gt;" style="rhombus;whiteSpace=wrap;html=1;rounded=0;fillColor=#f8cecc;strokeColor=#b85450;" parent="1" vertex="1">
          <mxGeometry x="329" y="-165" width="170" height="150" as="geometry" />
        </mxCell>
        <mxCell id="fhHp4hX9JzmjNrHZHUwl-4" value="" style="edgeStyle=orthogonalEdgeStyle;rounded=0;orthogonalLoop=1;jettySize=auto;html=1;" parent="1" source="fhHp4hX9JzmjNrHZHUwl-1" target="fhHp4hX9JzmjNrHZHUwl-3" edge="1">
          <mxGeometry relative="1" as="geometry" />
        </mxCell>
        <mxCell id="fhHp4hX9JzmjNrHZHUwl-1" value="Generate Key in GitBash&lt;div&gt;&lt;br&gt;&lt;/div&gt;" style="whiteSpace=wrap;html=1;rounded=0;" parent="1" vertex="1">
          <mxGeometry x="510" y="10" width="120" height="60" as="geometry" />
        </mxCell>
        <mxCell id="tfVudf7GB_SLAYmDoiBs-2" value="" style="edgeStyle=orthogonalEdgeStyle;rounded=0;orthogonalLoop=1;jettySize=auto;html=1;" parent="1" source="fhHp4hX9JzmjNrHZHUwl-3" target="tfVudf7GB_SLAYmDoiBs-1" edge="1">
          <mxGeometry relative="1" as="geometry" />
        </mxCell>
        <mxCell id="fhHp4hX9JzmjNrHZHUwl-3" value="Using&amp;nbsp;&lt;div&gt;&lt;div&gt;&amp;nbsp;ssh-keygen -t ed25519 -C &quot;goel.samarth18@gmail.com&quot;&lt;/div&gt;&lt;/div&gt;&lt;div&gt;&lt;br&gt;&lt;/div&gt;" style="whiteSpace=wrap;html=1;rounded=0;" parent="1" vertex="1">
          <mxGeometry x="510" y="150" width="200" height="60" as="geometry" />
        </mxCell>
        <mxCell id="fhHp4hX9JzmjNrHZHUwl-5" value="Now&amp;nbsp;&lt;div&gt;AccountSettings-&amp;gt;SSH Keys -&amp;gt;&lt;/div&gt;&lt;div&gt;Add SSH key&lt;/div&gt;" style="whiteSpace=wrap;html=1;rounded=0;" parent="1" vertex="1">
          <mxGeometry x="310" y="150" width="120" height="60" as="geometry" />
        </mxCell>
        <mxCell id="tfVudf7GB_SLAYmDoiBs-1" value="Find the .pub&amp;nbsp;&lt;div&gt;file and then copy the contents&lt;/div&gt;&lt;div&gt;(pub stands for public key)&lt;/div&gt;" style="whiteSpace=wrap;html=1;rounded=0;" parent="1" vertex="1">
          <mxGeometry x="550" y="290" width="120" height="60" as="geometry" />
        </mxCell>
        <mxCell id="tfVudf7GB_SLAYmDoiBs-3" style="edgeStyle=orthogonalEdgeStyle;rounded=0;orthogonalLoop=1;jettySize=auto;html=1;entryX=0.617;entryY=1;entryDx=0;entryDy=0;entryPerimeter=0;" parent="1" source="tfVudf7GB_SLAYmDoiBs-1" target="fhHp4hX9JzmjNrHZHUwl-5" edge="1">
          <mxGeometry relative="1" as="geometry" />
        </mxCell>
        <mxCell id="sewehlAB87TqMcHt7Hhk-1" value="Main Article -&amp;nbsp;&lt;div&gt;&lt;span style=&quot;background-color: rgb(102, 255, 189);&quot;&gt;https://gist.github.com/bsara/5c4d90db3016814a3d2fe38d314f9c23&lt;/span&gt;&lt;br&gt;&lt;/div&gt;" style="rounded=0;whiteSpace=wrap;html=1;" parent="1" vertex="1">
          <mxGeometry x="120" y="-270" width="610" height="60" as="geometry" />
        </mxCell>
        <mxCell id="PGLFLjqnHnvzEPf0PoGp-1" value="How to clone a repo using SSH" style="rounded=0;whiteSpace=wrap;html=1;" vertex="1" parent="1">
          <mxGeometry x="440" y="510" width="120" height="60" as="geometry" />
        </mxCell>
      </root>
    </mxGraphModel>
  </diagram>
</mxfile>
